<svg width="8" height="16" viewBox="0 0 8 16" fill="none" xmlns="http://www.w3.org/2000/svg">
  <path fill-rule="evenodd" clip-rule="evenodd" d="M1.64273 8.06357V15.7995C1.64273 15.912 1.73073 16 1.84318 16H4.71307C4.82552 16 4.91352 15.912 4.91352 15.7995V7.93643H6.99627C7.09894 7.93643 7.18695 7.85819 7.19672 7.75061L7.39718 5.38386C7.40695 5.2665 7.31406 5.16381 7.19672 5.16381H4.91352V3.48166C4.91352 3.08557 5.23131 2.76773 5.62733 2.76773H7.23095C7.3434 2.76773 7.4314 2.67971 7.4314 2.56724V0.200489C7.4314 0.0880195 7.3434 0 7.23095 0H4.51751C2.92856 0 1.63784 1.29095 1.63784 2.8802V5.16381H0.200452C0.0880033 5.16381 0 5.25183 0 5.3643V7.73105C0 7.84352 0.0880033 7.93154 0.200452 7.93154H1.63784V8.06357H1.64273Z" fill="#232323"/>
  </svg>
  