<svg width="12" height="18" viewBox="0 0 12 18" fill="none" xmlns="http://www.w3.org/2000/svg">
  <path d="M1.00002 15.6667H11C11.4584 15.6667 11.8334 16.0417 11.8334 16.5001C11.8334 16.9584 11.4584 17.3334 11 17.3334H1.00002C0.541687 17.3334 0.166687 16.9584 0.166687 16.5001C0.166687 16.0417 0.541687 15.6667 1.00002 15.6667ZM6.00002 4.83341C5.08335 4.83341 4.33335 5.58341 4.33335 6.50008C4.33335 7.41675 5.08335 8.16675 6.00002 8.16675C6.91669 8.16675 7.66669 7.41675 7.66669 6.50008C7.66669 5.58341 6.91669 4.83341 6.00002 4.83341ZM6.00002 0.666748C8.72502 0.666748 11.8334 2.71675 11.8334 6.62508C11.8334 9.10841 10.0584 11.7251 6.50835 14.4501C6.20835 14.6834 5.79169 14.6834 5.49169 14.4501C1.94169 11.7167 0.166687 9.10841 0.166687 6.62508C0.166687 2.71675 3.27502 0.666748 6.00002 0.666748Z" fill="#232323"/>
  </svg>
  